#N canvas 173 77 836 697 10;
#X obj 143 45 inlet;
#X obj 181 116 list-map;
#N canvas 641 154 799 647 h2d 1;
#X obj 87 11 inlet;
#X msg 202 186 10;
#X msg 231 183 11;
#X msg 251 204 12;
#X msg 280 225 13;
#X msg 317 230 14;
#X msg 361 230 15;
#X floatatom 163 298 5 0 0 0 - - -;
#X obj 167 387 outlet;
#X msg 386 187 0;
#X msg 412 196 1;
#X msg 433 199 2;
#X msg 458 207 3;
#X msg 485 212 4;
#X msg 504 213 5;
#X msg 527 213 6;
#X msg 547 219 7;
#X msg 563 222 8;
#X msg 578 225 9;
#X obj 81 72 list split 1;
#X obj 88 127 route float symbol;
#X obj 76 211 print o_o;
#X obj 254 112 route A B C D E F;
#X obj 81 45 list append;
#X connect 0 0 23 0;
#X connect 1 0 7 0;
#X connect 2 0 7 0;
#X connect 3 0 7 0;
#X connect 4 0 7 0;
#X connect 5 0 7 0;
#X connect 6 0 7 0;
#X connect 7 0 8 0;
#X connect 9 0 7 0;
#X connect 10 0 7 0;
#X connect 11 0 7 0;
#X connect 12 0 7 0;
#X connect 13 0 7 0;
#X connect 14 0 7 0;
#X connect 15 0 7 0;
#X connect 16 0 7 0;
#X connect 17 0 7 0;
#X connect 18 0 7 0;
#X connect 19 0 22 0;
#X connect 19 0 21 0;
#X connect 22 0 1 0;
#X connect 22 1 2 0;
#X connect 22 2 3 0;
#X connect 22 3 4 0;
#X connect 22 4 5 0;
#X connect 22 5 6 0;
#X connect 23 0 19 0;
#X restore 287 120 pd h2d;
#X obj 237 525 outlet;
#X floatatom 156 445 30 0 0 0 - - -;
#X obj 319 382 expr $i4 + $i3*16 + $i2*256 + $i1*4096;
#X obj 183 303 print wtf;
#X obj 340 287 unpack f f f f;
#X connect 0 0 1 0;
#X connect 1 0 6 0;
#X connect 1 0 7 0;
#X connect 1 1 2 0;
#X connect 2 0 1 1;
#X connect 4 0 3 0;
#X connect 5 0 4 0;
#X connect 7 0 5 0;
#X connect 7 1 5 1;
#X connect 7 2 5 2;
#X connect 7 3 5 3;
