#N canvas 0 22 450 300 10;
#X floatatom 341 403 5 0 0 0 - - -;
#N canvas 542 63 991 662 hexchar_to_int 0;
#X obj 344 276 symbol2list;
#N canvas 212 180 630 516 h2d 0;
#X obj 87 48 inlet;
#X msg 127 155 10;
#X msg 172 162 11;
#X msg 210 176 12;
#X msg 252 160 13;
#X msg 307 172 14;
#X msg 351 172 15;
#X floatatom 163 298 5 0 0 0 - - -;
#X obj 167 387 outlet;
#X obj 100 83 select A B C D E F;
#X connect 0 0 9 0;
#X connect 1 0 7 0;
#X connect 2 0 7 0;
#X connect 3 0 7 0;
#X connect 4 0 7 0;
#X connect 5 0 7 0;
#X connect 6 0 7 0;
#X connect 7 0 8 0;
#X connect 9 0 1 0;
#X connect 9 1 2 0;
#X connect 9 2 3 0;
#X connect 9 3 4 0;
#X connect 9 4 5 0;
#X connect 9 5 6 0;
#X restore 295 431 pd h2d;
#X floatatom 300 461 5 0 0 0 - - -;
#X obj 296 130 route symbol float;
#X obj 317 193 t s b;
#X obj 345 316 list split 1;
#X obj 303 366 route symbol float;
#X symbolatom 294 401 10 0 0 0 - - -;
#X floatatom 453 172 5 0 0 0 - - -;
#X floatatom 507 241 5 0 0 0 - - -;
#X obj 467 204 expr ($i1/10)*16 + ($i1%10);
#N canvas 212 180 630 516 h2d 0;
#X obj 87 48 inlet;
#X msg 127 155 10;
#X msg 172 162 11;
#X msg 210 176 12;
#X msg 252 160 13;
#X msg 307 172 14;
#X msg 351 172 15;
#X floatatom 163 298 5 0 0 0 - - -;
#X obj 167 387 outlet;
#X obj 100 83 select A B C D E F;
#X connect 0 0 9 0;
#X connect 1 0 7 0;
#X connect 2 0 7 0;
#X connect 3 0 7 0;
#X connect 4 0 7 0;
#X connect 5 0 7 0;
#X connect 6 0 7 0;
#X connect 7 0 8 0;
#X connect 9 0 1 0;
#X connect 9 1 2 0;
#X connect 9 2 3 0;
#X connect 9 3 4 0;
#X connect 9 4 5 0;
#X connect 9 5 6 0;
#X restore 450 436 pd h2d;
#X floatatom 455 466 5 0 0 0 - - -;
#X obj 458 371 route symbol float;
#X symbolatom 449 406 10 0 0 0 - - -;
#X obj 314 496 expr $i1*16 + $i2;
#X floatatom 327 521 5 0 0 0 - - -;
#X obj 216 88 inlet;
#X obj 550 611 outlet;
#X symbolatom 387 239 10 0 0 0 - - -;
#X msg 389 177 symbol;
#X obj 389 196 t b s;
#X connect 0 0 5 0;
#X connect 1 0 2 0;
#X connect 2 0 15 0;
#X connect 3 0 4 0;
#X connect 3 1 8 0;
#X connect 4 0 0 0;
#X connect 4 1 20 0;
#X connect 5 0 6 0;
#X connect 5 1 13 0;
#X connect 6 0 7 0;
#X connect 6 1 2 0;
#X connect 7 0 1 0;
#X connect 8 0 10 0;
#X connect 9 0 18 0;
#X connect 10 0 9 0;
#X connect 11 0 12 0;
#X connect 12 0 15 1;
#X connect 13 0 14 0;
#X connect 13 1 12 0;
#X connect 14 0 11 0;
#X connect 15 0 16 0;
#X connect 16 0 18 0;
#X connect 17 0 3 0;
#X connect 19 0 0 1;
#X connect 20 0 21 0;
#X connect 21 1 19 0;
#X restore 311 371 pd hexchar_to_int;
#X floatatom 452 404 5 0 0 0 - - -;
#N canvas 140 59 991 662 hexchar_to_int 0;
#X obj 344 276 symbol2list;
#N canvas 212 180 630 516 h2d 0;
#X obj 87 48 inlet;
#X msg 127 155 10;
#X msg 172 162 11;
#X msg 210 176 12;
#X msg 252 160 13;
#X msg 307 172 14;
#X msg 351 172 15;
#X floatatom 163 298 5 0 0 0 - - -;
#X obj 167 387 outlet;
#X obj 100 83 select A B C D E F;
#X connect 0 0 9 0;
#X connect 1 0 7 0;
#X connect 2 0 7 0;
#X connect 3 0 7 0;
#X connect 4 0 7 0;
#X connect 5 0 7 0;
#X connect 6 0 7 0;
#X connect 7 0 8 0;
#X connect 9 0 1 0;
#X connect 9 1 2 0;
#X connect 9 2 3 0;
#X connect 9 3 4 0;
#X connect 9 4 5 0;
#X connect 9 5 6 0;
#X restore 295 431 pd h2d;
#X floatatom 300 461 5 0 0 0 - - -;
#X obj 296 130 route symbol float;
#X obj 317 193 t s b;
#X obj 345 316 list split 1;
#X obj 303 366 route symbol float;
#X symbolatom 294 401 10 0 0 0 - - -;
#X floatatom 453 172 5 0 0 0 - - -;
#X floatatom 507 241 5 0 0 0 - - -;
#X obj 467 204 expr ($i1/10)*16 + ($i1%10);
#N canvas 212 180 630 516 h2d 0;
#X obj 87 48 inlet;
#X msg 127 155 10;
#X msg 172 162 11;
#X msg 210 176 12;
#X msg 252 160 13;
#X msg 307 172 14;
#X msg 351 172 15;
#X floatatom 163 298 5 0 0 0 - - -;
#X obj 167 387 outlet;
#X obj 100 83 select A B C D E F;
#X connect 0 0 9 0;
#X connect 1 0 7 0;
#X connect 2 0 7 0;
#X connect 3 0 7 0;
#X connect 4 0 7 0;
#X connect 5 0 7 0;
#X connect 6 0 7 0;
#X connect 7 0 8 0;
#X connect 9 0 1 0;
#X connect 9 1 2 0;
#X connect 9 2 3 0;
#X connect 9 3 4 0;
#X connect 9 4 5 0;
#X connect 9 5 6 0;
#X restore 450 436 pd h2d;
#X floatatom 455 466 5 0 0 0 - - -;
#X obj 458 371 route symbol float;
#X symbolatom 449 406 10 0 0 0 - - -;
#X obj 314 496 expr $i1*16 + $i2;
#X floatatom 327 521 5 0 0 0 - - -;
#X obj 216 88 inlet;
#X obj 550 611 outlet;
#X symbolatom 387 239 10 0 0 0 - - -;
#X msg 389 177 symbol;
#X obj 389 196 t b s;
#X connect 0 0 5 0;
#X connect 1 0 2 0;
#X connect 2 0 15 0;
#X connect 3 0 4 0;
#X connect 3 1 8 0;
#X connect 4 0 0 0;
#X connect 4 1 20 0;
#X connect 5 0 6 0;
#X connect 5 1 13 0;
#X connect 6 0 7 0;
#X connect 6 1 2 0;
#X connect 7 0 1 0;
#X connect 8 0 10 0;
#X connect 9 0 18 0;
#X connect 10 0 9 0;
#X connect 11 0 12 0;
#X connect 12 0 15 1;
#X connect 13 0 14 0;
#X connect 13 1 12 0;
#X connect 14 0 11 0;
#X connect 15 0 16 0;
#X connect 16 0 18 0;
#X connect 17 0 3 0;
#X connect 19 0 0 1;
#X connect 20 0 21 0;
#X connect 21 1 19 0;
#X restore 452 371 pd hexchar_to_int;
#X obj 392 154 list split 2;
#X obj 344 229 crunchlist;
#X obj 453 231 crunchlist;
#X symbolatom 294 297 10 0 0 0 - - -;
#X symbolatom 473 303 10 0 0 0 - - -;
#X floatatom 437 519 5 0 0 0 - - -;
#X obj 371 476 expr $i1* 256 + $i2;
#X obj 430 71 inlet;
#X obj 444 561 outlet;
#X connect 0 0 10 0;
#X connect 1 0 0 0;
#X connect 2 0 10 1;
#X connect 3 0 2 0;
#X connect 4 0 5 0;
#X connect 4 1 6 0;
#X connect 5 0 7 0;
#X connect 6 0 8 0;
#X connect 7 0 1 0;
#X connect 8 0 3 0;
#X connect 9 0 12 0;
#X connect 10 0 9 0;
#X connect 11 0 4 0;
