#N canvas 260 61 1149 753 12;
#X obj 77 177 sendOSC;
#X msg 72 47 connect localhost 9001;
#X obj 72 17 loadbang;
#X obj 59 250 dumpOSC 9000;
#X obj 94 114 bng 15 250 50 0 empty empty empty 0 -6 0 8 -262144 -1
-1;
#X msg 94 142 send /fruity/cue;
#X obj 64 276 OSCroute /fruity /load;
#X text 116 117 send OSC;
#X text 74 226 receive OSC;
#X msg 415 53 close;
#X obj 351 103 comport 7 9600;
#X obj 94 78 r cue;
#X obj 62 355 print OSC;
#X obj 13 322 spigot;
#X obj 42 297 tgl 15 0 empty empty empty 0 -6 0 8 -262144 -1 -1 0 1
;
#X obj 74 298 unpack s f;
#X text 347 24 Read from Bluetooth;
#X text 453 93 comment;
#X obj 363 132 s out;
#X obj 529 28 r in;
#X obj 796 64 s in;
#X obj 999 192 s out;
#X obj 969 87 r in;
#X msg 737 12 print ATI;
#X msg 351 51 open 2;
#X obj 341 241 r out;
#X obj 513 85 s obdmsgclear;
#X msg 948 114 41 0C 1A F8;
#N canvas 84 307 522 496 assemblemsg 0;
#X obj 203 -1899 float2ascii;
#X floatatom 163 -1982 5 0 0 0 - - -;
#X symbolatom 203 -1870 10 0 0 0 - - -;
#X obj 173 -1948 sel 62;
#X obj 134 -1774 l2s;
#X symbolatom 129 -1748 10 0 0 0 - - -;
#X obj 136 -1806 l;
#X obj 214 -1773 l2s;
#X symbolatom 214 -1744 10 0 0 0 - - -;
#X obj 104 -1882 b;
#X obj 309 -1774 l2s;
#X symbolatom 312 -1743 10 0 0 0 - - -;
#X obj 307 -1800 l;
#X obj 165 -1852 t l;
#X obj 44 -1956 r obdmsgclear;
#X obj 141 -1918 b;
#X obj 46 -1713 outlet;
#X obj 160 -2021 inlet;
#X obj 210 -1842 list prepend;
#X obj 31 -1757 list trim;
#X connect 0 0 2 0;
#X connect 1 0 3 0;
#X connect 2 0 18 0;
#X connect 3 0 15 0;
#X connect 3 1 0 0;
#X connect 4 0 5 0;
#X connect 6 0 4 0;
#X connect 6 0 19 0;
#X connect 7 0 8 0;
#X connect 9 0 13 0;
#X connect 10 0 11 0;
#X connect 12 0 10 0;
#X connect 12 0 18 1;
#X connect 13 0 12 0;
#X connect 14 0 9 0;
#X connect 15 0 6 0;
#X connect 15 0 13 0;
#X connect 17 0 1 0;
#X connect 18 0 6 1;
#X connect 18 0 7 0;
#X connect 18 0 12 0;
#X connect 19 0 16 0;
#X restore 338 271 pd assemblemsg;
#X obj 340 300 s msg;
#X obj 525 57 t a b;
#X obj 254 380 r msg;
#X obj 255 407 print message;
#X msg 1065 164 62;
#X obj 924 337 list-drip;
#N canvas 376 329 589 504 rpm 1;
#X obj 369 -545 r msg;
#X obj 358 -507 list split 4;
#X obj 278 -441 hextodecimal;
#X obj 383 -440 hextodecimal;
#X obj 289 -384 == 16652;
#X obj 350 -411 bng 15 250 50 0 empty empty empty 17 7 0 10 -262144
-1 -1;
#X obj 356 -344 spigot;
#X obj 382 -400 t b i;
#X obj 316 -321 / 4;
#X obj 429 -193 s rpm;
#X obj 56 -438 s in;
#X obj 35 -602 r get_rpm;
#X msg 31 -490 1 0C;
#X msg 96 -529 13;
#X obj 80 -576 t b b b;
#X connect 0 0 1 0;
#X connect 1 0 2 0;
#X connect 1 1 3 0;
#X connect 2 0 4 0;
#X connect 3 0 7 0;
#X connect 4 0 5 0;
#X connect 4 0 6 1;
#X connect 5 0 3 0;
#X connect 6 0 8 0;
#X connect 7 0 4 0;
#X connect 7 1 6 0;
#X connect 8 0 9 0;
#X connect 11 0 14 0;
#X connect 12 0 10 0;
#X connect 13 0 10 0;
#X connect 14 0 13 0;
#X connect 14 1 12 0;
#X connect 14 2 13 0;
#X restore 769 155 pd rpm;
#N canvas 225 281 974 517 old 0;
#X obj 254 -181 print lol;
#X obj 187 -387 == 49152;
#X obj 367 -322 print hjk;
#X obj 268 -316 i;
#X obj 199 -307 t b;
#X msg 398 -396 1 A F 9;
#X obj 148 -311 bng 15 250 50 0 empty empty empty 17 7 0 10 -262144
-1 -1;
#X obj 96 -419 print split1;
#X obj 309 -406 print split2;
#X obj 197 -412 hex2int;
#X obj 256 -357 hex2int;
#X connect 1 0 4 0;
#X connect 1 0 6 0;
#X connect 3 0 0 0;
#X connect 4 0 3 0;
#X connect 5 0 2 0;
#X connect 5 0 10 0;
#X connect 9 0 1 0;
#X connect 10 0 3 1;
#X connect 10 0 2 0;
#X restore 49 550 pd old;
#X obj 689 156 s get_rpm;
#X obj 689 138 bng 15 250 50 0 empty empty empty 17 7 0 10 -262144
-1 -1;
#X obj 712 206 r rpm;
#X obj 714 246 print rpm;
#X msg 871 12 13;
#N canvas 375 392 988 700 speed 1;
#X obj 369 -545 r msg;
#X obj 358 -507 list split 4;
#X obj 278 -441 hextodecimal;
#X obj 350 -319 bng 15 250 50 0 empty empty empty 17 7 0 10 -262144
-1 -1;
#X obj 356 -252 spigot;
#X obj 382 -308 t b i;
#X obj 34 -452 s in;
#X obj 35 -602 r get_speed;
#X obj 289 -292 == 16653;
#X floatatom 569 -334 5 0 0 0 - - -;
#N canvas 140 59 991 662 hexchar_to_int 0;
#X obj 344 276 symbol2list;
#N canvas 212 180 630 516 h2d 0;
#X obj 87 48 inlet;
#X msg 127 155 10;
#X msg 172 162 11;
#X msg 210 176 12;
#X msg 252 160 13;
#X msg 307 172 14;
#X msg 351 172 15;
#X floatatom 163 298 5 0 0 0 - - -;
#X obj 167 387 outlet;
#X obj 100 83 select A B C D E F;
#X connect 0 0 9 0;
#X connect 1 0 7 0;
#X connect 2 0 7 0;
#X connect 3 0 7 0;
#X connect 4 0 7 0;
#X connect 5 0 7 0;
#X connect 6 0 7 0;
#X connect 7 0 8 0;
#X connect 9 0 1 0;
#X connect 9 1 2 0;
#X connect 9 2 3 0;
#X connect 9 3 4 0;
#X connect 9 4 5 0;
#X connect 9 5 6 0;
#X restore 295 431 pd h2d;
#X floatatom 300 461 5 0 0 0 - - -;
#X obj 296 130 route symbol float;
#X obj 317 193 t s b;
#X obj 345 316 list split 1;
#X obj 303 366 route symbol float;
#X symbolatom 294 401 10 0 0 0 - - -;
#X floatatom 453 172 5 0 0 0 - - -;
#X floatatom 507 241 5 0 0 0 - - -;
#X obj 467 204 expr ($i1/10)*16 + ($i1%10);
#N canvas 212 180 630 516 h2d 0;
#X obj 87 48 inlet;
#X msg 127 155 10;
#X msg 172 162 11;
#X msg 210 176 12;
#X msg 252 160 13;
#X msg 307 172 14;
#X msg 351 172 15;
#X floatatom 163 298 5 0 0 0 - - -;
#X obj 167 387 outlet;
#X obj 100 83 select A B C D E F;
#X connect 0 0 9 0;
#X connect 1 0 7 0;
#X connect 2 0 7 0;
#X connect 3 0 7 0;
#X connect 4 0 7 0;
#X connect 5 0 7 0;
#X connect 6 0 7 0;
#X connect 7 0 8 0;
#X connect 9 0 1 0;
#X connect 9 1 2 0;
#X connect 9 2 3 0;
#X connect 9 3 4 0;
#X connect 9 4 5 0;
#X connect 9 5 6 0;
#X restore 450 436 pd h2d;
#X floatatom 455 466 5 0 0 0 - - -;
#X obj 458 371 route symbol float;
#X symbolatom 449 406 10 0 0 0 - - -;
#X obj 314 496 expr $i1*16 + $i2;
#X floatatom 327 521 5 0 0 0 - - -;
#X obj 216 88 inlet;
#X obj 550 611 outlet;
#X symbolatom 387 239 10 0 0 0 - - -;
#X msg 389 177 symbol;
#X obj 389 196 t b s;
#X connect 0 0 5 0;
#X connect 1 0 2 0;
#X connect 2 0 15 0;
#X connect 3 0 4 0;
#X connect 3 1 8 0;
#X connect 4 0 0 0;
#X connect 4 1 20 0;
#X connect 5 0 6 0;
#X connect 5 1 13 0;
#X connect 6 0 7 0;
#X connect 6 1 2 0;
#X connect 7 0 1 0;
#X connect 8 0 10 0;
#X connect 9 0 18 0;
#X connect 10 0 9 0;
#X connect 11 0 12 0;
#X connect 12 0 15 1;
#X connect 13 0 14 0;
#X connect 13 1 12 0;
#X connect 14 0 11 0;
#X connect 15 0 16 0;
#X connect 16 0 18 0;
#X connect 17 0 3 0;
#X connect 19 0 0 1;
#X connect 20 0 21 0;
#X connect 21 1 19 0;
#X restore 558 -362 pd hexchar_to_int;
#X obj 553 -416 crunchlist;
#X symbolatom 558 -389 10 0 0 0 - - -;
#X obj 429 -193 s speed;
#X msg 16 -542 1 0D;
#X obj 90 -548 t b b;
#X msg 101 -493 13;
#X connect 0 0 1 0;
#X connect 1 0 2 0;
#X connect 1 1 11 0;
#X connect 2 0 8 0;
#X connect 3 0 11 0;
#X connect 4 0 13 0;
#X connect 5 0 8 0;
#X connect 5 1 4 0;
#X connect 7 0 15 0;
#X connect 8 0 3 0;
#X connect 8 0 4 1;
#X connect 9 0 5 0;
#X connect 10 0 9 0;
#X connect 11 0 12 0;
#X connect 12 0 10 0;
#X connect 14 0 6 0;
#X connect 15 0 16 0;
#X connect 15 1 14 0;
#X connect 16 0 6 0;
#X restore 574 289 pd speed;
#X obj 574 162 bng 15 250 50 0 empty empty empty 17 7 0 10 -262144
-1 -1;
#X obj 574 175 s get_speed;
#X obj 578 230 r speed;
#X obj 579 258 print speed;
#X obj 342 159 print comport_out;
#X msg 916 244 52 49 48 67 49 65 70 56 62;
#X msg 927 274 52 49 48 68 49 65 70 56 62;
#X obj 793 522 tgl 15 0 empty empty empty 0 -6 0 8 -262144 -1 -1 1
1;
#X floatatom 851 509 5 0 0 0 - - -;
#X obj 814 590 t b b;
#X obj 870 625 s get_rpm;
#X obj 777 623 s get_speed;
#X obj 795 545 metro 50;
#X obj 660 351 expr 127 * ($f1 / 16383.8);
#X floatatom 653 391 5 0 0 0 - - -;
#X obj 643 445 ctlout 1 1;
#X obj 429 408 print msg;
#X connect 1 0 0 0;
#X connect 2 0 1 0;
#X connect 3 0 6 0;
#X connect 3 0 13 0;
#X connect 4 0 5 0;
#X connect 5 0 0 0;
#X connect 6 0 12 0;
#X connect 6 0 15 0;
#X connect 9 0 10 0;
#X connect 10 0 18 0;
#X connect 11 0 4 0;
#X connect 13 0 12 0;
#X connect 14 0 13 1;
#X connect 19 0 30 0;
#X connect 23 0 20 0;
#X connect 24 0 10 0;
#X connect 25 0 28 0;
#X connect 27 0 21 0;
#X connect 28 0 29 0;
#X connect 28 0 59 0;
#X connect 30 0 10 0;
#X connect 30 1 26 0;
#X connect 31 0 32 0;
#X connect 33 0 21 0;
#X connect 34 0 21 0;
#X connect 38 0 37 0;
#X connect 39 0 40 0;
#X connect 39 0 56 0;
#X connect 41 0 20 0;
#X connect 43 0 44 0;
#X connect 45 0 46 0;
#X connect 48 0 34 0;
#X connect 49 0 34 0;
#X connect 50 0 55 0;
#X connect 51 0 55 1;
#X connect 52 0 53 0;
#X connect 55 0 52 0;
#X connect 56 0 57 0;
#X connect 57 0 58 0;
#X coords 0 0 5 5 0 0 0;
